<svg width="80" height="80" viewBox="0 0 80 80" fill="none" xmlns="http://www.w3.org/2000/svg">
<path d="M25 28V49L32.2 43.6C32.719 43.21 33.3505 43 34 43H46C46.7956 43 47.5587 42.6839 48.1213 42.1213C48.6839 41.5587 49 40.7956 49 40V28C49 27.2044 48.6839 26.4413 48.1213 25.8787C47.5587 25.3161 46.7956 25 46 25H28C27.2044 25 26.4413 25.3161 25.8787 25.8787C25.3161 26.4413 25 27.2044 25 28ZM28 43V28H46V40H33.001C32.3516 39.9983 31.7195 40.209 31.201 40.6L28 43Z" fill="#263057"/>
<path d="M55 55V35.5C55 34.7044 54.6839 33.9413 54.1213 33.3787C53.5587 32.8161 52.7956 32.5 52 32.5V49L48.799 46.6C48.2805 46.209 47.6484 45.9983 46.999 46H32.5C32.5 46.394 32.5776 46.7841 32.7284 47.1481C32.8791 47.512 33.1001 47.8427 33.3787 48.1213C33.6573 48.3999 33.988 48.6209 34.352 48.7716C34.7159 48.9224 35.106 49 35.5 49H46C46.6495 49 47.281 49.21 47.8 49.6L55 55Z" fill="#263057"/>
</svg>
