<svg width="80" height="80" viewBox="0 0 80 80" fill="none" xmlns="http://www.w3.org/2000/svg">
<path d="M48.4081 53.4489L45.1466 50.1874L43.3711 51.963L48.4081 57L57.2229 48.1852L55.4474 46.4097L48.4081 53.4489Z" fill="#263057"/>
<path d="M33.2964 30.5556C33.9918 30.5556 34.5556 29.9918 34.5556 29.2963C34.5556 28.6008 33.9918 28.037 33.2964 28.037C32.6009 28.037 32.0371 28.6008 32.0371 29.2963C32.0371 29.9918 32.6009 30.5556 33.2964 30.5556Z" fill="#263057"/>
<path d="M33.2964 40.6296C33.9918 40.6296 34.5556 40.0658 34.5556 39.3703C34.5556 38.6749 33.9918 38.1111 33.2964 38.1111C32.6009 38.1111 32.0371 38.6749 32.0371 39.3703C32.0371 40.0658 32.6009 40.6296 33.2964 40.6296Z" fill="#263057"/>
<path d="M33.2964 50.7037C33.9918 50.7037 34.5556 50.1399 34.5556 49.4444C34.5556 48.749 33.9918 48.1852 33.2964 48.1852C32.6009 48.1852 32.0371 48.749 32.0371 49.4444C32.0371 50.1399 32.6009 50.7037 33.2964 50.7037Z" fill="#263057"/>
<path d="M49.6667 23H29.5185C28.8506 23 28.21 23.2653 27.7377 23.7377C27.2653 24.21 27 24.8506 27 25.5185V53.2222C27 53.8902 27.2653 54.5308 27.7377 55.0031C28.21 55.4754 28.8506 55.7407 29.5185 55.7407H39.5926V53.2222H29.5185V45.6667H52.1852V25.5185C52.1852 24.8506 51.9198 24.21 51.4475 23.7377C50.9752 23.2653 50.3346 23 49.6667 23ZM49.6667 43.1481H29.5185V35.5926H49.6667V43.1481ZM49.6667 33.0741H29.5185V25.5185H49.6667V33.0741Z" fill="#263057"/>
</svg>
