<svg width="80" height="80" viewBox="0 0 80 80" fill="none" xmlns="http://www.w3.org/2000/svg">
<path d="M53.8 25H26.2C25.5362 25 25 25.5362 25 26.2V53.8C25 54.4638 25.5362 55 26.2 55H53.8C54.4638 55 55 54.4638 55 53.8V26.2C55 25.5362 54.4638 25 53.8 25ZM52.3 52.3H27.7V27.7H52.3V52.3ZM33.55 46.4125V49.3C33.55 49.465 33.685 49.6 33.85 49.6H35.65C35.815 49.6 35.95 49.465 35.95 49.3V46.4125C35.5712 46.5363 35.17 46.6 34.75 46.6C34.33 46.6 33.9288 46.5325 33.55 46.4125ZM35.95 38.9875V30.7C35.95 30.535 35.815 30.4 35.65 30.4H33.85C33.685 30.4 33.55 30.535 33.55 30.7V38.9875C33.9288 38.8638 34.33 38.8 34.75 38.8C35.17 38.8 35.5712 38.8675 35.95 38.9875ZM33.55 46.4125C33.9288 46.5363 34.33 46.6 34.75 46.6C35.17 46.6 35.5712 46.5325 35.95 46.4125C37.5175 45.9062 38.65 44.4363 38.65 42.7C38.65 40.9638 37.5175 39.4938 35.95 38.9875C35.5712 38.8638 35.17 38.8 34.75 38.8C34.33 38.8 33.9288 38.8675 33.55 38.9875C31.9825 39.4938 30.85 40.9638 30.85 42.7C30.85 44.4363 31.9825 45.9062 33.55 46.4125ZM33.5538 42.0737C33.565 42.0513 33.58 42.0288 33.5913 42.0063V42.0025L33.6362 41.935C33.64 41.9275 33.6438 41.9237 33.6475 41.9163C33.6588 41.8975 33.6738 41.8825 33.685 41.8638C33.6888 41.86 33.6925 41.8525 33.6962 41.8488C33.715 41.8263 33.73 41.8075 33.7487 41.7888L33.76 41.7775L33.805 41.7325L33.82 41.7175C33.8388 41.6987 33.8575 41.6838 33.88 41.665C33.9025 41.6463 33.9213 41.6313 33.9438 41.6162C33.9513 41.6125 33.955 41.6087 33.9625 41.605C33.9813 41.5938 33.9963 41.5788 34.015 41.5675C34.0188 41.5637 34.0262 41.56 34.03 41.5563C34.0525 41.5413 34.075 41.53 34.1013 41.515C34.105 41.5113 34.1125 41.5113 34.1163 41.5075C34.135 41.4963 34.1538 41.4888 34.1763 41.4775L34.1987 41.4662C34.225 41.455 34.2475 41.4438 34.2738 41.4363C34.3 41.425 34.3263 41.4175 34.3525 41.41C34.36 41.4062 34.3675 41.4063 34.375 41.4025C34.3975 41.395 34.4163 41.3913 34.4388 41.3875C34.4463 41.3875 34.45 41.3838 34.4575 41.3838C34.4838 41.3763 34.5138 41.3725 34.54 41.3688C34.5475 41.3688 34.5513 41.3688 34.5588 41.365C34.5813 41.3613 34.6038 41.3613 34.6263 41.3575H34.6488C34.6788 41.3575 34.705 41.3538 34.735 41.3538C34.765 41.3538 34.7913 41.3538 34.8212 41.3575H34.8438C34.8663 41.3575 34.8888 41.3613 34.9113 41.365C34.9187 41.365 34.9225 41.365 34.93 41.3688C34.9563 41.3725 34.9862 41.3763 35.0125 41.3838C35.02 41.3838 35.0238 41.3875 35.0312 41.3875C35.0538 41.3913 35.0763 41.3988 35.095 41.4025C35.1025 41.4063 35.11 41.4062 35.1175 41.41C35.1438 41.4175 35.17 41.425 35.1962 41.4363C35.2225 41.4438 35.245 41.455 35.2712 41.4662L35.2938 41.4775C35.3125 41.485 35.335 41.4963 35.3538 41.5075C35.3575 41.5113 35.365 41.5113 35.3688 41.515C35.3913 41.5263 35.4175 41.5413 35.44 41.5563C35.4438 41.56 35.4513 41.5637 35.455 41.5675C35.4738 41.5788 35.4925 41.59 35.5075 41.605C35.515 41.6087 35.5188 41.6125 35.5263 41.6162C35.5488 41.6313 35.5712 41.65 35.59 41.665C35.6088 41.68 35.6313 41.6987 35.65 41.7175L35.665 41.7325L35.71 41.7775L35.7213 41.7888C35.74 41.8075 35.7587 41.83 35.7738 41.8488C35.7775 41.8525 35.7813 41.86 35.785 41.8638C35.8 41.8788 35.8113 41.8975 35.8225 41.9163C35.8263 41.9237 35.83 41.9275 35.8337 41.935L35.8788 42.0025C35.8788 42.0025 35.8788 42.0063 35.8825 42.0063C36.0075 42.2161 36.0736 42.4558 36.0737 42.7C36.0737 42.925 36.0175 43.1388 35.92 43.3263C35.9088 43.3488 35.8938 43.3713 35.8825 43.3938C35.8825 43.3938 35.8825 43.3975 35.8788 43.3975L35.8337 43.465C35.83 43.4725 35.8263 43.4763 35.8225 43.4838C35.8113 43.5025 35.7963 43.5175 35.785 43.5363C35.7813 43.54 35.7775 43.5475 35.7738 43.5513C35.755 43.5738 35.74 43.5925 35.7213 43.6112L35.71 43.6225L35.665 43.6675L35.65 43.6825C35.6313 43.7013 35.6125 43.7162 35.59 43.735C35.5675 43.7537 35.5488 43.7688 35.5263 43.7838C35.5188 43.7875 35.515 43.7913 35.5075 43.795C35.4888 43.8063 35.4738 43.8213 35.455 43.8325C35.4513 43.8363 35.4438 43.84 35.44 43.8438C35.4175 43.8588 35.395 43.87 35.3688 43.885C35.365 43.8888 35.3575 43.8888 35.3538 43.8925C35.335 43.9037 35.3163 43.9112 35.2938 43.9225L35.2712 43.9338C35.245 43.945 35.2225 43.9563 35.1962 43.9638C35.17 43.975 35.1438 43.9825 35.1175 43.99C35.11 43.9938 35.1025 43.9937 35.095 43.9975C35.0725 44.005 35.0538 44.0088 35.0312 44.0125C35.0238 44.0125 35.02 44.0163 35.0125 44.0163C34.9862 44.0238 34.9563 44.0275 34.93 44.0312C34.9225 44.0312 34.9187 44.0312 34.9113 44.035C34.8888 44.0387 34.8663 44.0387 34.8438 44.0425H34.8212C34.7913 44.0425 34.765 44.0463 34.735 44.0463C34.705 44.0463 34.6788 44.0462 34.6488 44.0425H34.6263C34.6038 44.0425 34.5813 44.0387 34.5588 44.035C34.5513 44.035 34.5475 44.035 34.54 44.0312C34.5138 44.0275 34.4838 44.0238 34.4575 44.0163C34.45 44.0163 34.4463 44.0125 34.4388 44.0125C34.4163 44.0088 34.3938 44.0012 34.375 43.9975C34.3675 43.9937 34.36 43.9938 34.3525 43.99C34.3263 43.9825 34.3 43.975 34.2738 43.9638C34.2475 43.9563 34.225 43.945 34.1987 43.9338L34.1763 43.9225C34.1575 43.915 34.135 43.9037 34.1163 43.8925C34.1125 43.8888 34.105 43.8888 34.1013 43.885C34.0788 43.8738 34.0525 43.8588 34.03 43.8438C34.0262 43.84 34.0188 43.8363 34.015 43.8325C33.9963 43.8213 33.9775 43.81 33.9625 43.795C33.955 43.7913 33.9513 43.7875 33.9438 43.7838C33.9213 43.7688 33.8988 43.75 33.88 43.735C33.8612 43.72 33.8388 43.7013 33.82 43.6825L33.805 43.6675L33.76 43.6225L33.7487 43.6112C33.73 43.5925 33.7113 43.57 33.6962 43.5513C33.6925 43.5475 33.6888 43.54 33.685 43.5363C33.67 43.5212 33.6588 43.5025 33.6475 43.4838C33.6438 43.4763 33.64 43.4725 33.6362 43.465L33.5913 43.3975V43.3938C33.5763 43.3713 33.565 43.3488 33.5538 43.3263C33.4563 43.1388 33.4 42.925 33.4 42.7C33.4 42.475 33.4563 42.2612 33.5538 42.0737ZM44.05 41.0125V49.3C44.05 49.465 44.185 49.6 44.35 49.6H46.15C46.315 49.6 46.45 49.465 46.45 49.3V41.0125C46.0713 41.1363 45.67 41.2 45.25 41.2C44.83 41.2 44.4288 41.1325 44.05 41.0125ZM46.45 33.5875V30.7C46.45 30.535 46.315 30.4 46.15 30.4H44.35C44.185 30.4 44.05 30.535 44.05 30.7V33.5875C44.4288 33.4637 44.83 33.4 45.25 33.4C45.67 33.4 46.0713 33.4675 46.45 33.5875ZM44.05 41.0125C44.4288 41.1363 44.83 41.2 45.25 41.2C45.67 41.2 46.0713 41.1325 46.45 41.0125C48.0175 40.5063 49.15 39.0363 49.15 37.3C49.15 35.5638 48.0175 34.0938 46.45 33.5875C46.0713 33.4637 45.67 33.4 45.25 33.4C44.83 33.4 44.4288 33.4675 44.05 33.5875C42.4825 34.0938 41.35 35.5638 41.35 37.3C41.35 39.0363 42.4825 40.5063 44.05 41.0125ZM44.0537 36.6737C44.065 36.6512 44.08 36.6288 44.0912 36.6063V36.6025L44.1362 36.535C44.14 36.5275 44.1437 36.5238 44.1475 36.5163C44.1588 36.4975 44.1737 36.4825 44.185 36.4638C44.1887 36.46 44.1925 36.4525 44.1963 36.4487C44.215 36.4263 44.23 36.4075 44.2488 36.3888L44.26 36.3775L44.305 36.3325L44.32 36.3175C44.3388 36.2987 44.3575 36.2838 44.38 36.265C44.4025 36.2463 44.4213 36.2313 44.4438 36.2163C44.4513 36.2125 44.455 36.2087 44.4625 36.205C44.4813 36.1938 44.4963 36.1788 44.515 36.1675C44.5188 36.1637 44.5263 36.16 44.53 36.1562C44.5525 36.1413 44.575 36.13 44.6013 36.115C44.605 36.1112 44.6125 36.1113 44.6162 36.1075C44.635 36.0963 44.6538 36.0887 44.6763 36.0775L44.6987 36.0663C44.725 36.055 44.7475 36.0437 44.7738 36.0363C44.8 36.025 44.8263 36.0175 44.8525 36.01C44.86 36.0063 44.8675 36.0063 44.875 36.0025C44.8975 35.995 44.9163 35.9913 44.9388 35.9875C44.9463 35.9875 44.95 35.9838 44.9575 35.9838C44.9838 35.9763 45.0138 35.9725 45.04 35.9688C45.0475 35.9688 45.0513 35.9688 45.0588 35.965C45.0813 35.9613 45.1038 35.9613 45.1263 35.9575H45.1488C45.1788 35.9575 45.205 35.9538 45.235 35.9538C45.265 35.9538 45.2913 35.9538 45.3213 35.9575H45.3438C45.3663 35.9575 45.3888 35.9613 45.4113 35.965C45.4188 35.965 45.4225 35.965 45.43 35.9688C45.4563 35.9725 45.4862 35.9763 45.5125 35.9838C45.52 35.9838 45.5238 35.9875 45.5312 35.9875C45.5538 35.9913 45.5763 35.9987 45.595 36.0025C45.6025 36.0063 45.61 36.0063 45.6175 36.01C45.6438 36.0175 45.67 36.025 45.6963 36.0363C45.7225 36.0437 45.745 36.055 45.7713 36.0663L45.7938 36.0775C45.8125 36.085 45.835 36.0963 45.8538 36.1075C45.8575 36.1113 45.865 36.1112 45.8688 36.115C45.8913 36.1263 45.9175 36.1413 45.94 36.1562C45.9438 36.16 45.9513 36.1637 45.955 36.1675C45.9738 36.1788 45.9925 36.19 46.0075 36.205C46.015 36.2087 46.0188 36.2125 46.0263 36.2163C46.0488 36.2313 46.0713 36.25 46.09 36.265C46.1088 36.28 46.1313 36.2987 46.15 36.3175L46.165 36.3325L46.21 36.3775L46.2213 36.3888C46.24 36.4075 46.2588 36.43 46.2738 36.4487C46.2775 36.4525 46.2812 36.46 46.285 36.4638C46.3 36.4788 46.3113 36.4975 46.3225 36.5163C46.3263 36.5238 46.33 36.5275 46.3338 36.535L46.3787 36.6025V36.6063C46.5038 36.8161 46.5699 37.0558 46.57 37.3C46.57 37.525 46.5138 37.7388 46.4163 37.9263C46.405 37.9488 46.39 37.9713 46.3787 37.9938V37.9975L46.3338 38.065C46.33 38.0725 46.3263 38.0763 46.3225 38.0838C46.3113 38.1025 46.2962 38.1175 46.285 38.1363C46.2812 38.14 46.2775 38.1475 46.2738 38.1513C46.255 38.1738 46.24 38.1925 46.2213 38.2113L46.21 38.2225L46.165 38.2675L46.15 38.2825C46.1313 38.3013 46.1125 38.3163 46.09 38.335C46.0675 38.3538 46.0488 38.3688 46.0263 38.3837C46.0188 38.3875 46.015 38.3913 46.0075 38.395C45.9888 38.4063 45.9738 38.4213 45.955 38.4325C45.9513 38.4363 45.9438 38.44 45.94 38.4438C45.9175 38.4588 45.895 38.47 45.8688 38.485C45.865 38.4888 45.8575 38.4888 45.8538 38.4925C45.835 38.5037 45.8163 38.5113 45.7938 38.5225L45.7713 38.5338C45.745 38.545 45.7225 38.5563 45.6963 38.5638C45.67 38.575 45.6438 38.5825 45.6175 38.59C45.61 38.5938 45.6025 38.5938 45.595 38.5975C45.5725 38.605 45.5538 38.6088 45.5312 38.6125C45.5238 38.6125 45.52 38.6163 45.5125 38.6163C45.4862 38.6238 45.4563 38.6275 45.43 38.6313C45.4225 38.6313 45.4188 38.6313 45.4113 38.635C45.3888 38.6388 45.3663 38.6388 45.3438 38.6425H45.3213C45.2913 38.6425 45.265 38.6463 45.235 38.6463C45.205 38.6463 45.1788 38.6462 45.1488 38.6425H45.1263C45.1038 38.6425 45.0813 38.6388 45.0588 38.635C45.0513 38.635 45.0475 38.635 45.04 38.6313C45.0138 38.6275 44.9838 38.6238 44.9575 38.6163C44.95 38.6163 44.9463 38.6125 44.9388 38.6125C44.9163 38.6088 44.8938 38.6013 44.875 38.5975C44.8675 38.5938 44.86 38.5938 44.8525 38.59C44.8263 38.5825 44.8 38.575 44.7738 38.5638C44.7475 38.5563 44.725 38.545 44.6987 38.5338L44.6763 38.5225C44.6575 38.515 44.635 38.5037 44.6162 38.4925C44.6125 38.4888 44.605 38.4888 44.6013 38.485C44.5788 38.4738 44.5525 38.4588 44.53 38.4438C44.5263 38.44 44.5188 38.4363 44.515 38.4325C44.4963 38.4213 44.4775 38.41 44.4625 38.395C44.455 38.3913 44.4513 38.3875 44.4438 38.3837C44.4213 38.3688 44.3988 38.35 44.38 38.335C44.3612 38.32 44.3388 38.3013 44.32 38.2825L44.305 38.2675L44.26 38.2225L44.2488 38.2113C44.23 38.1925 44.2113 38.17 44.1963 38.1513C44.1925 38.1475 44.1887 38.14 44.185 38.1363C44.17 38.1213 44.1588 38.1025 44.1475 38.0838C44.1437 38.0763 44.14 38.0725 44.1362 38.065L44.0912 37.9975V37.9938C44.0763 37.9713 44.065 37.9488 44.0537 37.9263C43.9562 37.7388 43.9 37.525 43.9 37.3C43.9 37.075 43.9562 36.8612 44.0537 36.6737Z" fill="#263057"/>
</svg>
