<svg xmlns="http://www.w3.org/2000/svg" version="1.1"
  xmlns:xlink="http://www.w3.org/1999/xlink"
  xmlns:svgjs="http://svgjs.com/svgjs" width="128" height="128" x="0" y="0" viewBox="0 0 128 128" style="enable-background:new 0 0 512 512" xml:space="preserve" class="">
  <g>
    <path d="m125.67 64a61.627 61.627 0 0 1 -34.09 55.16v.01a61.3 61.3 0 0 1 -18.79 5.87.06.06 0 0 0 -.04.01 61.712 61.712 0 0 1 -69.29-72.85c0-.02.01-.04.01-.06a61.644 61.644 0 0 1 60.53-49.81c.19 0 .37 0 .56.01a61.06 61.06 0 0 1 31.41 8.93 61.609 61.609 0 0 1 29.68 50.87c.02.62.02 1.24.02 1.86z" fill="#cecbbc" data-original="#cecbbc" class=""></path>
    <path d="m15.24 46.9a3.719 3.719 0 0 1 4.04-3.35 3.845 3.845 0 0 1 -.98 7.61 3.718 3.718 0 0 1 -3.06-4.26z" fill="#b5b09c" data-original="#b5b09c"></path>
    <path d="m45.15 48.62c3.55 0 5.77 2.16 5.77 5.71s-2.51 6.59-6.07 6.59-6.07-3.23-6.07-6.79 2.81-5.51 6.37-5.51z" fill="#b5b09c" data-original="#b5b09c"></path>
    <path d="m62.33 36.78c-2.4 5.89-11.35 5.09-15 5.86-5.09 1.08-7.83-1.06-9.99-2.88a4.531 4.531 0 0 0 -3.89-.97c-3.98.89-10.29 1.25-12.45-1.87-3.11-4.5 4.58-9.17 5.58-11.59.98-2.37-3.89-.88-6.76-4.33a61.971 61.971 0 0 1 16.12-11.93 61.351 61.351 0 0 1 28.06-6.74c.19 0 .37 0 .56.01-.12 3.16-4.2 6.59-4.13 7.95.08 1.59 4.57 5.71 5.24 7.71s-.67 12.25-3.34 18.78z" fill="#f7f2e4" data-original="#f7f2e4" class=""></path>
    <path d="m72.79 125.04a.06.06 0 0 0 -.04.01 61.712 61.712 0 0 1 -69.29-72.85c0-.02.01-.04.01-.06 6.41.24 6.48 7.36 10.91 9.36s24 6.25 27.87 10 6.37 18.13 5.25 24.5 4.25 11.17 10.12 13.27 9.84 15.07 15.17 15.77z" fill="#a03f3f" data-original="#a03f3f"></path>
    <path d="m74.06 38.36a2.813 2.813 0 1 1 4.01.9 2.924 2.924 0 0 1 -4.01-.9z" fill="#b5b09c" data-original="#b5b09c"></path>
    <path d="m81.63 110.28c.96 2.52-.65 5.18-3.17 6.14s-4.67-.51-5.63-3.04a4.027 4.027 0 0 1 2.49-5.63 4.745 4.745 0 0 1 6.31 2.53z" fill="#b5b09c" data-original="#b5b09c"></path>
    <path d="m78.63 16.88c.58-1.9 2.82-2.14 4.85-1.51s3.34 2.3 2.75 4.19-2.52 2.69-4.54 2.06-3.65-2.85-3.06-4.74z" fill="#f7f2e4" data-original="#f7f2e4" class=""></path>
    <g fill="#b5b09c">
      <path d="m97.82 30.8c1.8-2.68 5.36-2.14 8.4-.1s3.7 5.11 1.9 7.8-4.43 2.69-7.47.65-4.63-5.66-2.83-8.35z" fill="#b5b09c" data-original="#b5b09c"></path>
      <path d="m125.67 64a61.627 61.627 0 0 1 -34.09 55.16c2.41-3.84-.84-11.24-3.83-14.91s-26.54-8.58-26.42-24.58c.05-5.55-5.45-9.42-6.08-15.67-.7-6.98 6.29-5.36 10.49-8.17 5.6-3.73 14.09-5.45 20.26-1.45s10.83 6.15 15.17 5.95c7.91-.36 8.13-19.79 20.68-17.73a61.177 61.177 0 0 1 3.8 19.54c.02.62.02 1.24.02 1.86z" fill="#b5b09c" data-original="#b5b09c"></path>
    </g>
  </g>
  <animateTransform attributeName="transform" type="rotate" repeatCount="indefinite" dur="18s" values="0 0 0;360 0 0" keyTimes="0;1"></animateTransform>
</svg>