<svg width="294" height="83" viewBox="0 0 294 83" fill="none" xmlns="http://www.w3.org/2000/svg">
<path d="M49.1313 30.6978C47.9158 30.6978 46.9213 29.6779 46.9213 28.4314V22.0967C46.9213 21.8134 46.7003 21.5868 46.424 21.5868H39.8604C38.6449 21.5868 37.6504 20.5669 37.6504 19.3204C37.6504 18.0738 38.6449 17.054 39.8604 17.054H46.424C49.1313 17.054 51.3413 19.3204 51.3413 22.0967V28.4314C51.3413 29.6892 50.3468 30.6978 49.1313 30.6978Z" fill="#24378F"/>
<path d="M36.4923 34.1106C35.9044 34.1106 35.3165 33.8799 34.8642 33.4071C33.9937 32.4962 34.0163 31.0317 34.9208 30.1438L46.3621 18.8432C47.2552 17.9553 48.691 17.9783 49.5616 18.9008C50.4321 19.8118 50.4095 21.2763 49.505 22.1642L38.0637 33.4648C37.6228 33.8915 37.0575 34.1106 36.4923 34.1106Z" fill="#24378F"/>
<path d="M21.2489 54.5745C20.8642 54.5745 20.4909 54.4827 20.1402 54.2763C19.4161 53.8633 18.9749 53.0833 18.9862 52.246L19.0654 46.3042C16.022 45.7191 13.6914 42.9891 13.6914 39.7085V23.7643C13.6914 20.0707 16.6556 17.054 20.3099 17.054H30.5034C31.7479 17.054 32.7662 18.0863 32.7662 19.3481C32.7662 20.6099 31.7479 21.6422 30.5034 21.6422H20.3099C19.1559 21.6422 18.2169 22.5943 18.2169 23.7643V39.7085C18.2169 40.8785 19.1559 41.8306 20.3099 41.8306L21.396 41.8421C22.6405 41.865 23.6474 42.8974 23.6248 44.1706L23.5682 48.0821L32.7775 42.1977C33.1395 41.9682 33.5581 41.8421 33.9767 41.8421L43.6272 41.8306C44.6794 41.8306 45.4261 41.5668 45.9239 41.0391C46.7498 40.1444 46.8403 38.5615 46.8064 38.0223C46.8064 37.9765 46.8064 37.9076 46.8064 37.8617C46.8064 36.6 47.8246 35.5447 49.0691 35.5447C50.3136 35.5447 51.3205 36.5311 51.3318 37.7929C51.3658 38.5156 51.4223 41.7847 49.2614 44.1477C48.3111 45.1915 46.5688 46.4303 43.6386 46.4303L34.6442 46.4418L22.4481 54.2189C22.0861 54.4483 21.6675 54.5745 21.2489 54.5745Z" fill="#A2B0E2"/>
<path d="M62.0381 67.0812C61.6195 67.0812 61.2009 66.9665 60.8276 66.7256L48.6434 58.937L38.5635 58.9256C32.4318 58.9256 31.9453 54.7617 31.9453 53.4885C31.9453 52.2267 32.9635 51.1599 34.2079 51.1599C35.4524 51.1599 36.4705 52.1579 36.4705 53.4311V53.4885C36.4705 53.8326 36.4705 54.3373 38.5635 54.3373L49.2996 54.3488C49.7295 54.3488 50.1367 54.475 50.4987 54.7044L59.8886 60.7035L60.013 56.5741C60.047 55.3353 61.0538 54.3488 62.2756 54.3488C63.5767 54.3488 65.07 53.2132 65.07 52.2152V36.271C65.07 35.101 64.131 34.1489 62.9771 34.1489H57.445C56.2005 34.1489 55.1824 33.1166 55.1824 31.8548C55.1824 30.593 56.2005 29.5607 57.445 29.5607H62.9771C66.6312 29.5607 69.5952 32.566 69.5952 36.271V52.2152C69.5952 55.2435 67.1968 57.6753 64.4817 58.57L64.3007 64.8559C64.2781 65.6818 63.8255 66.4274 63.1015 66.8174C62.7734 66.9895 62.4001 67.0812 62.0381 67.0812Z" fill="#A2B0E2"/>
<path d="M65.135 4.52501C72.6384 4.52501 78.7455 10.6111 78.7455 18.0887V64.9113C78.7455 72.3889 72.6384 78.475 65.135 78.475H18.1511C10.6477 78.475 4.54061 72.3889 4.54061 64.9113V18.0887C4.54061 10.6111 10.6477 4.52501 18.1511 4.52501H65.135ZM65.135 0H18.1511C8.12769 0 0 8.09977 0 18.0887V64.9113C0 74.9002 8.12769 83 18.1511 83H65.135C75.1584 83 83.2861 74.9002 83.2861 64.9113V18.0887C83.2861 8.09977 75.1584 0 65.135 0Z" fill="#24378F"/>
<path d="M96.6118 23.9538C96.6118 23.163 96.7453 22.3839 97.0124 21.6048C97.2795 20.8256 97.6578 20.1279 98.1697 19.5116C98.6816 18.8953 99.2936 18.3952 100.028 18.0115C100.762 17.6277 101.597 17.4301 102.543 17.4301C103.656 17.4301 104.613 17.6975 105.403 18.2324C106.193 18.7674 106.782 19.4535 107.172 20.2907L106.426 20.7326C106.204 20.2791 105.937 19.8953 105.636 19.593C105.336 19.2907 105.013 19.0348 104.668 18.8488C104.323 18.6627 103.956 18.5232 103.578 18.4301C103.199 18.3487 102.832 18.3022 102.465 18.3022C101.664 18.3022 100.963 18.4766 100.351 18.8139C99.7387 19.1511 99.2268 19.593 98.7928 20.1279C98.37 20.6628 98.0473 21.2792 97.8359 21.9653C97.6133 22.6514 97.5132 23.3374 97.5132 24.0235C97.5132 24.8027 97.6467 25.5353 97.9026 26.233C98.1586 26.9307 98.5146 27.547 98.9598 28.082C99.4049 28.6169 99.939 29.0471 100.551 29.3611C101.163 29.6867 101.82 29.8379 102.532 29.8379C102.91 29.8379 103.3 29.7914 103.7 29.6867C104.101 29.5821 104.479 29.4309 104.846 29.2216C105.213 29.0123 105.547 28.7448 105.87 28.4192C106.193 28.0936 106.449 27.7098 106.66 27.268L107.439 27.6517C107.228 28.1401 106.938 28.582 106.571 28.9657C106.204 29.3495 105.803 29.6635 105.358 29.9309C104.913 30.1868 104.435 30.3845 103.934 30.5124C103.433 30.6403 102.943 30.7101 102.465 30.7101C101.608 30.7101 100.818 30.5124 100.106 30.117C99.3937 29.7216 98.7817 29.2099 98.2587 28.582C97.7468 27.954 97.3351 27.2331 97.0458 26.4191C96.7453 25.605 96.6118 24.791 96.6118 23.9538Z" fill="#313F89"/>
<path d="M113.68 30.71C113.021 30.71 112.408 30.5817 111.852 30.3135C111.296 30.0452 110.807 29.6837 110.399 29.2288C109.99 28.774 109.672 28.2375 109.445 27.6427C109.218 27.0362 109.104 26.4064 109.104 25.7417C109.104 25.0652 109.218 24.4238 109.456 23.8173C109.695 23.2108 110.013 22.686 110.421 22.2312C110.83 21.7763 111.318 21.4148 111.875 21.1465C112.431 20.8783 113.032 20.75 113.68 20.75C114.327 20.75 114.928 20.8783 115.485 21.1465C116.041 21.4148 116.518 21.7763 116.938 22.2312C117.346 22.686 117.676 23.2225 117.914 23.8173C118.152 24.4238 118.266 25.0652 118.266 25.7417C118.266 26.4064 118.152 27.0479 117.914 27.6427C117.676 28.2375 117.358 28.774 116.949 29.2288C116.54 29.6837 116.052 30.0452 115.496 30.3135C114.928 30.5817 114.327 30.71 113.68 30.71ZM110.001 25.7766C110.001 26.3481 110.092 26.873 110.285 27.3744C110.478 27.8759 110.739 28.3075 111.068 28.6807C111.398 29.0539 111.784 29.3455 112.226 29.5554C112.669 29.777 113.146 29.8819 113.646 29.8819C114.145 29.8819 114.622 29.777 115.065 29.5554C115.507 29.3455 115.893 29.0422 116.234 28.6574C116.574 28.2725 116.836 27.8293 117.029 27.3395C117.222 26.838 117.312 26.3015 117.312 25.7183C117.312 25.1469 117.222 24.622 117.029 24.1205C116.836 23.619 116.574 23.1875 116.234 22.8026C115.893 22.4294 115.507 22.1262 115.076 21.9046C114.633 21.683 114.168 21.5664 113.657 21.5664C113.146 21.5664 112.681 21.683 112.238 21.9046C111.795 22.1262 111.409 22.4294 111.08 22.8143C110.751 23.1992 110.489 23.6424 110.285 24.1555C110.104 24.6687 110.001 25.2052 110.001 25.7766Z" fill="#313F89"/>
<path d="M127.428 29.8691H126.549V24.8753C126.549 23.7137 126.382 22.8778 126.049 22.3459C125.715 21.8139 125.181 21.5534 124.447 21.5534C124.058 21.5534 123.669 21.6185 123.291 21.7596C122.913 21.9007 122.557 22.0962 122.223 22.3459C121.889 22.5955 121.6 22.8887 121.356 23.2361C121.111 23.5726 120.922 23.9417 120.811 24.3325V29.88H119.932V20.9128H120.766V23.0515C120.955 22.7041 121.189 22.3893 121.467 22.107C121.745 21.8248 122.056 21.5859 122.401 21.3797C122.746 21.1842 123.113 21.0214 123.502 20.9128C123.891 20.8043 124.292 20.75 124.703 20.75C125.704 20.75 126.405 21.0974 126.816 21.7705C127.228 22.4436 127.428 23.4315 127.428 24.7016V29.8691V29.8691Z" fill="#313F89"/>
<path d="M132.927 30.71C132.204 30.71 131.504 30.5817 130.838 30.3368C130.172 30.0919 129.587 29.7187 129.093 29.2288L129.552 28.599C130.057 29.0655 130.586 29.4154 131.137 29.637C131.688 29.8586 132.284 29.9752 132.939 29.9752C133.765 29.9752 134.431 29.8003 134.936 29.4504C135.441 29.1005 135.694 28.6107 135.694 27.9809C135.694 27.6893 135.625 27.4328 135.499 27.2345C135.372 27.0362 135.177 26.8613 134.925 26.7213C134.672 26.5814 134.351 26.4531 133.972 26.3365C133.593 26.2198 133.157 26.1032 132.663 25.9866C132.135 25.8583 131.665 25.7417 131.274 25.6134C130.884 25.4851 130.551 25.3451 130.299 25.1702C130.046 24.9952 129.851 24.7853 129.725 24.5404C129.598 24.2955 129.529 23.9806 129.529 23.5957C129.529 23.1175 129.621 22.6977 129.805 22.3361C129.989 21.9746 130.241 21.683 130.563 21.4498C130.884 21.2165 131.251 21.0416 131.676 20.9249C132.101 20.8083 132.537 20.75 133.019 20.75C133.754 20.75 134.42 20.8783 134.982 21.1349C135.544 21.3914 135.992 21.718 136.314 22.1029L135.808 22.6044C135.487 22.2312 135.085 21.9513 134.58 21.7763C134.075 21.5897 133.536 21.4964 132.973 21.4964C132.617 21.4964 132.296 21.5314 131.986 21.6014C131.676 21.6714 131.412 21.788 131.171 21.9513C130.93 22.1145 130.758 22.3128 130.62 22.5694C130.482 22.826 130.425 23.1175 130.425 23.4674C130.425 23.7473 130.471 23.9806 130.563 24.1555C130.654 24.3305 130.804 24.4821 130.999 24.5987C131.194 24.7153 131.458 24.832 131.768 24.9253C132.089 25.0186 132.457 25.1235 132.893 25.2285C133.49 25.3801 134.018 25.5201 134.477 25.66C134.936 25.8 135.326 25.9633 135.636 26.1615C135.946 26.3598 136.187 26.593 136.348 26.8613C136.509 27.1295 136.589 27.4794 136.589 27.8993C136.589 28.7623 136.256 29.4504 135.59 29.9636C134.925 30.4651 134.041 30.71 132.927 30.71Z" fill="#313F89"/>
<path d="M141.301 30.7101C139.263 30.7101 138.255 29.3856 138.255 26.7476V21.5909H139.17V26.639C139.17 28.8428 139.969 29.9393 141.579 29.9393C141.985 29.9393 142.379 29.8742 142.749 29.7439C143.132 29.6136 143.479 29.4291 143.815 29.1902C144.151 28.9514 144.441 28.6691 144.684 28.3326C144.927 27.996 145.136 27.6269 145.286 27.2253V21.5801H146.201V29.3313C146.201 29.6136 146.329 29.7656 146.583 29.7656V30.5364C146.526 30.5472 146.468 30.5581 146.421 30.5581C146.375 30.5581 146.34 30.5581 146.305 30.5581C146.062 30.5581 145.842 30.4821 145.657 30.341C145.471 30.1998 145.367 30.0044 145.367 29.7656V28.4303C144.95 29.1576 144.383 29.7113 143.653 30.113C142.923 30.5147 142.147 30.7101 141.301 30.7101Z" fill="#313F89"/>
<path d="M149.082 17.4301H150.039V28.7528C150.039 29.1055 150.145 29.3786 150.346 29.5835C150.547 29.7883 150.842 29.8907 151.197 29.8907C151.338 29.8907 151.504 29.8793 151.693 29.8452C151.882 29.8111 152.059 29.7655 152.224 29.7087L152.413 30.4256C152.201 30.5052 151.941 30.5735 151.622 30.6304C151.303 30.6873 151.043 30.7101 150.819 30.7101C150.299 30.7101 149.874 30.5621 149.555 30.2549C149.236 29.9476 149.082 29.538 149.082 29.0145V17.4301V17.4301Z" fill="#313F89"/>
<path d="M157.411 30.1634C157.367 30.1857 157.289 30.2303 157.179 30.2972C157.068 30.3642 156.924 30.42 156.758 30.4869C156.593 30.5538 156.394 30.5985 156.184 30.6431C155.974 30.6877 155.741 30.71 155.498 30.71C155.255 30.71 155.023 30.6765 154.802 30.6096C154.58 30.5427 154.393 30.4311 154.227 30.2861C154.061 30.1411 153.939 29.9737 153.84 29.7729C153.751 29.5721 153.696 29.3378 153.696 29.0701V22.1311H152.414V21.406H153.696V18.26H154.569V21.406H156.692V22.1311H154.569V28.8581C154.569 29.204 154.691 29.4605 154.923 29.6279C155.155 29.7952 155.421 29.8845 155.708 29.8845C156.073 29.8845 156.383 29.8175 156.648 29.6948C156.913 29.5721 157.068 29.494 157.134 29.4606L157.411 30.1634Z" fill="#313F89"/>
<path d="M161.405 30.71C160.962 30.71 160.542 30.6285 160.168 30.477C159.783 30.3256 159.445 30.1159 159.165 29.848C158.874 29.58 158.652 29.2655 158.489 28.9044C158.325 28.5433 158.244 28.1472 158.244 27.7278C158.244 27.3085 158.337 26.924 158.535 26.5862C158.734 26.2484 159.014 25.9455 159.363 25.6892C159.713 25.4329 160.133 25.2349 160.635 25.0951C161.125 24.9553 161.673 24.8854 162.268 24.8854C162.781 24.8854 163.306 24.932 163.831 25.0252C164.356 25.1184 164.823 25.2466 165.242 25.4096V24.4661C165.242 23.5574 164.986 22.8352 164.461 22.2993C163.948 21.7635 163.236 21.4955 162.35 21.4955C161.883 21.4955 161.381 21.5887 160.857 21.7868C160.332 21.9848 159.795 22.2644 159.258 22.6372L158.909 22.0081C160.145 21.1694 161.311 20.75 162.42 20.75C163.574 20.75 164.496 21.0878 165.161 21.7518C165.826 22.4275 166.164 23.3478 166.164 24.536V29.2306C166.164 29.5334 166.304 29.6965 166.572 29.6965V30.5236C166.514 30.5353 166.444 30.5469 166.374 30.5469C166.304 30.5469 166.246 30.5586 166.199 30.5586C165.954 30.5586 165.756 30.477 165.604 30.3139C165.452 30.1508 165.371 29.9528 165.347 29.7082V28.916C164.904 29.4985 164.333 29.9412 163.644 30.244C162.956 30.5586 162.21 30.71 161.405 30.71ZM161.591 29.9761C162.303 29.9761 162.968 29.8363 163.563 29.5684C164.158 29.3005 164.624 28.9393 164.939 28.4967C165.138 28.2404 165.231 27.9957 165.231 27.7628V26.062C164.788 25.8873 164.321 25.7591 163.843 25.6776C163.364 25.596 162.863 25.5494 162.338 25.5494C161.86 25.5494 161.416 25.596 161.02 25.7009C160.623 25.8057 160.285 25.9455 160.005 26.1319C159.725 26.3183 159.503 26.5396 159.352 26.8075C159.2 27.0755 159.119 27.3667 159.119 27.6812C159.119 28.0074 159.177 28.2986 159.305 28.5899C159.433 28.8694 159.597 29.1141 159.818 29.3238C160.04 29.5334 160.308 29.6849 160.6 29.8014C160.927 29.9179 161.241 29.9761 161.591 29.9761Z" fill="#313F89"/>
<path d="M171.239 30.71C170.516 30.71 169.815 30.5817 169.15 30.3368C168.484 30.0919 167.898 29.7187 167.405 29.2288L167.864 28.599C168.369 29.0655 168.897 29.4154 169.448 29.637C169.999 29.8586 170.596 29.9752 171.25 29.9752C172.077 29.9752 172.743 29.8003 173.248 29.4504C173.753 29.1005 174.005 28.6107 174.005 27.9809C174.005 27.6893 173.936 27.4328 173.81 27.2345C173.684 27.0362 173.489 26.8613 173.236 26.7213C172.984 26.5814 172.662 26.4531 172.283 26.3365C171.905 26.2198 171.468 26.1032 170.975 25.9866C170.447 25.8583 169.976 25.7417 169.586 25.6134C169.196 25.4851 168.863 25.3451 168.61 25.1702C168.358 24.9952 168.162 24.7853 168.036 24.5404C167.91 24.2955 167.841 23.9806 167.841 23.5957C167.841 23.1175 167.933 22.6977 168.116 22.3361C168.3 21.9746 168.553 21.683 168.874 21.4498C169.196 21.2165 169.563 21.0416 169.988 20.9249C170.412 20.8083 170.848 20.75 171.331 20.75C172.065 20.75 172.731 20.8783 173.293 21.1349C173.856 21.3914 174.304 21.718 174.625 22.1029L174.12 22.6044C173.799 22.2312 173.397 21.9513 172.892 21.7763C172.387 21.5897 171.847 21.4964 171.285 21.4964C170.929 21.4964 170.607 21.5314 170.297 21.6014C169.988 21.6714 169.724 21.788 169.482 21.9513C169.241 22.1145 169.069 22.3128 168.931 22.5694C168.794 22.826 168.736 23.1175 168.736 23.4674C168.736 23.7473 168.782 23.9806 168.874 24.1555C168.966 24.3305 169.115 24.4821 169.31 24.5987C169.505 24.7153 169.769 24.832 170.079 24.9253C170.401 25.0186 170.768 25.1235 171.204 25.2285C171.801 25.3801 172.329 25.5201 172.788 25.66C173.248 25.8 173.638 25.9633 173.948 26.1615C174.258 26.3598 174.499 26.593 174.659 26.8613C174.82 27.1295 174.901 27.4794 174.901 27.8993C174.901 28.7623 174.568 29.4504 173.902 29.9636C173.225 30.4651 172.341 30.71 171.239 30.71Z" fill="#313F89"/>
<path d="M185.188 30.7101C184.546 30.7101 183.95 30.5741 183.398 30.3021C182.847 30.0302 182.374 29.6676 181.98 29.2257C181.586 28.7838 181.271 28.2625 181.057 27.6847C180.832 27.1068 180.731 26.5062 180.731 25.883C180.731 25.2372 180.844 24.6139 181.057 24.0361C181.271 23.4468 181.564 22.9369 181.946 22.495C182.329 22.0531 182.779 21.7019 183.297 21.4299C183.815 21.1693 184.378 21.0333 184.997 21.0333C185.402 21.0333 185.784 21.09 186.145 21.2146C186.505 21.3393 186.831 21.4979 187.146 21.6905C187.461 21.8832 187.732 22.1211 187.99 22.3817C188.238 22.6423 188.452 22.9256 188.632 23.2315V17.4301H189.521V29.2937C189.521 29.5883 189.645 29.7469 189.892 29.7469V30.5514C189.825 30.5628 189.757 30.5741 189.712 30.5741C189.667 30.5741 189.622 30.5854 189.566 30.5854C189.33 30.5854 189.127 30.4948 188.958 30.3021C188.789 30.1208 188.711 29.9282 188.711 29.7242V28.6705C188.328 29.2937 187.822 29.7922 187.18 30.1662C186.538 30.5288 185.874 30.7101 185.188 30.7101ZM185.345 29.9055C185.672 29.9055 186.01 29.8376 186.381 29.7129C186.752 29.5883 187.09 29.3957 187.405 29.169C187.72 28.9424 187.99 28.6705 188.215 28.3645C188.441 28.0699 188.576 27.7413 188.609 27.3901V24.3193C188.474 23.9794 188.294 23.6621 188.047 23.3562C187.799 23.0503 187.529 22.7896 187.214 22.563C186.899 22.3364 186.572 22.1664 186.212 22.0305C185.852 21.8945 185.514 21.8378 185.177 21.8378C184.636 21.8378 184.152 21.9511 183.714 22.1891C183.275 22.427 182.903 22.733 182.588 23.1069C182.273 23.4808 182.037 23.9114 181.879 24.3987C181.71 24.8859 181.631 25.3845 181.631 25.8944C181.631 26.4382 181.721 26.9481 181.913 27.424C182.104 27.9 182.374 28.3305 182.712 28.7045C183.049 29.0784 183.443 29.373 183.894 29.5883C184.344 29.8036 184.828 29.9055 185.345 29.9055Z" fill="#313F89"/>
<path d="M196.19 30.71C195.531 30.71 194.918 30.5819 194.351 30.3139C193.783 30.046 193.295 29.6849 192.886 29.2189C192.478 28.7529 192.148 28.2287 191.91 27.623C191.672 27.0172 191.558 26.3765 191.558 25.6776C191.558 25.0019 191.672 24.3612 191.91 23.7671C192.148 23.173 192.466 22.6488 192.875 22.1945C193.284 21.7402 193.772 21.3907 194.328 21.1344C194.884 20.8781 195.486 20.75 196.133 20.75C196.792 20.75 197.405 20.8781 197.972 21.1461C198.54 21.414 199.017 21.7635 199.425 22.2178C199.834 22.6721 200.152 23.1847 200.379 23.7904C200.606 24.3845 200.72 25.0136 200.72 25.6892C200.72 25.7475 200.72 25.829 200.72 25.9222C200.72 26.0154 200.708 26.0736 200.697 26.0969H192.489C192.523 26.6561 192.648 27.1687 192.864 27.6463C193.079 28.1239 193.352 28.5316 193.681 28.8694C194.01 29.2073 194.396 29.4868 194.828 29.6849C195.259 29.8829 195.724 29.9761 196.213 29.9761C196.542 29.9761 196.86 29.9295 197.166 29.8363C197.473 29.7431 197.768 29.615 198.04 29.4519C198.313 29.2888 198.551 29.1024 198.756 28.8694C198.96 28.6365 199.13 28.3918 199.255 28.1239L200.05 28.3452C199.914 28.6947 199.721 29.0092 199.459 29.3004C199.198 29.5917 198.903 29.8363 198.563 30.046C198.222 30.2557 197.847 30.4188 197.439 30.5353C197.041 30.6518 196.621 30.71 196.19 30.71ZM199.857 25.3514C199.823 24.7806 199.698 24.268 199.482 23.8021C199.278 23.3361 199.005 22.9284 198.676 22.5906C198.347 22.2527 197.961 21.9848 197.53 21.7984C197.098 21.612 196.633 21.5072 196.145 21.5072C195.656 21.5072 195.191 21.6004 194.76 21.7984C194.328 21.9848 193.942 22.2527 193.613 22.5906C193.284 22.9284 193.023 23.3361 192.818 23.8137C192.625 24.2913 192.5 24.8039 192.466 25.3631H199.857V25.3514Z" fill="#313F89"/>
<path d="M211.124 30.71C210.466 30.71 209.853 30.5817 209.297 30.3135C208.74 30.0452 208.252 29.6837 207.844 29.2288C207.435 28.774 207.117 28.2375 206.89 27.6427C206.663 27.0362 206.549 26.4064 206.549 25.7417C206.549 25.0652 206.663 24.4238 206.901 23.8173C207.14 23.2108 207.458 22.686 207.866 22.2312C208.275 21.7763 208.763 21.4148 209.319 21.1465C209.876 20.8783 210.477 20.75 211.124 20.75C211.771 20.75 212.373 20.8783 212.929 21.1465C213.486 21.4148 213.963 21.7763 214.383 22.2312C214.791 22.686 215.12 23.2225 215.359 23.8173C215.597 24.4238 215.711 25.0652 215.711 25.7417C215.711 26.4064 215.597 27.0479 215.359 27.6427C215.12 28.2375 214.803 28.774 214.394 29.2288C213.985 29.6837 213.497 30.0452 212.941 30.3135C212.373 30.5817 211.771 30.71 211.124 30.71ZM207.458 25.7766C207.458 26.3481 207.548 26.873 207.741 27.3744C207.934 27.8759 208.195 28.3075 208.525 28.6807C208.854 29.0539 209.24 29.3455 209.683 29.5554C210.125 29.777 210.602 29.8819 211.102 29.8819C211.601 29.8819 212.078 29.777 212.521 29.5554C212.963 29.3455 213.349 29.0422 213.69 28.6574C214.031 28.2725 214.292 27.8293 214.485 27.3395C214.678 26.838 214.769 26.3015 214.769 25.7183C214.769 25.1469 214.678 24.622 214.485 24.1205C214.292 23.619 214.031 23.1875 213.69 22.8026C213.349 22.4294 212.964 22.1262 212.532 21.9046C212.089 21.683 211.624 21.5664 211.113 21.5664C210.602 21.5664 210.137 21.683 209.694 21.9046C209.251 22.1262 208.865 22.4294 208.536 22.8143C208.207 23.1992 207.946 23.6424 207.741 24.1555C207.548 24.6687 207.458 25.2052 207.458 25.7766Z" fill="#313F89"/>
<path d="M221.541 21.576C220.751 21.598 220.057 21.8403 219.469 22.3029C218.871 22.7654 218.466 23.3932 218.22 24.1972V29.88H217.376V20.7941H218.188V23.0297C218.498 22.391 218.893 21.8734 219.395 21.4659C219.896 21.0584 220.441 20.8381 221.007 20.772C221.124 20.761 221.22 20.75 221.317 20.75C221.402 20.75 221.477 20.75 221.541 20.75V21.576Z" fill="#313F89"/>
<path d="M224.04 19.1044V17.4301H224.872V19.1044H224.04ZM224.04 30.7101V21.2489H224.872V30.7101H224.04Z" fill="#313F89"/>
<path d="M231.17 30.71C230.511 30.71 229.898 30.5819 229.331 30.3139C228.763 30.046 228.275 29.6849 227.866 29.2189C227.458 28.7529 227.128 28.2287 226.89 27.623C226.652 27.0172 226.538 26.3765 226.538 25.6776C226.538 25.0019 226.652 24.3612 226.89 23.7671C227.128 23.173 227.446 22.6488 227.855 22.1945C228.264 21.7402 228.752 21.3907 229.308 21.1344C229.864 20.8781 230.466 20.75 231.113 20.75C231.772 20.75 232.385 20.8781 232.952 21.1461C233.52 21.414 233.997 21.7635 234.405 22.2178C234.814 22.6721 235.132 23.1847 235.359 23.7904C235.586 24.3845 235.7 25.0136 235.7 25.6892C235.7 25.7475 235.7 25.829 235.7 25.9222C235.7 26.0154 235.688 26.0736 235.677 26.0969H227.469C227.503 26.6561 227.628 27.1687 227.844 27.6463C228.059 28.1239 228.332 28.5316 228.661 28.8694C228.99 29.2073 229.376 29.4868 229.808 29.6849C230.239 29.8829 230.704 29.9761 231.193 29.9761C231.522 29.9761 231.84 29.9295 232.146 29.8363C232.453 29.7431 232.748 29.615 233.02 29.4519C233.293 29.2888 233.531 29.1024 233.736 28.8694C233.94 28.6365 234.11 28.3918 234.235 28.1239L235.03 28.3452C234.894 28.6947 234.701 29.0092 234.439 29.3004C234.178 29.5917 233.883 29.8363 233.543 30.046C233.202 30.2557 232.827 30.4188 232.419 30.5353C232.021 30.6518 231.601 30.71 231.17 30.71ZM234.848 25.3514C234.814 24.7806 234.689 24.268 234.473 23.8021C234.269 23.3361 233.997 22.9284 233.667 22.5906C233.338 22.2527 232.952 21.9848 232.521 21.7984C232.089 21.612 231.624 21.5072 231.136 21.5072C230.648 21.5072 230.182 21.6004 229.751 21.7984C229.319 21.9848 228.933 22.2527 228.604 22.5906C228.275 22.9284 228.014 23.3361 227.81 23.8137C227.617 24.2913 227.492 24.8039 227.458 25.3631H234.848V25.3514Z" fill="#313F89"/>
<path d="M244.861 29.8691H243.982V24.8753C243.982 23.7137 243.816 22.8778 243.482 22.3459C243.148 21.8139 242.614 21.5534 241.88 21.5534C241.491 21.5534 241.102 21.6185 240.724 21.7596C240.346 21.9007 239.99 22.0962 239.656 22.3459C239.323 22.5955 239.033 22.8887 238.789 23.2361C238.544 23.5726 238.355 23.9417 238.244 24.3325V29.88H237.365V20.9128H238.199V23.0515C238.388 22.7041 238.622 22.3893 238.9 22.107C239.178 21.8248 239.489 21.5859 239.834 21.3797C240.179 21.1842 240.546 21.0214 240.935 20.9128C241.324 20.8043 241.725 20.75 242.136 20.75C243.137 20.75 243.838 21.0974 244.249 21.7705C244.661 22.4436 244.861 23.4315 244.861 24.7016V29.8691V29.8691Z" fill="#313F89"/>
<path d="M251.524 30.1634C251.48 30.1857 251.402 30.2303 251.291 30.2972C251.18 30.3642 251.035 30.42 250.869 30.4869C250.702 30.5538 250.502 30.5985 250.291 30.6431C250.08 30.6877 249.847 30.71 249.603 30.71C249.359 30.71 249.125 30.6765 248.903 30.6096C248.681 30.5427 248.492 30.4311 248.326 30.2861C248.159 30.1411 248.037 29.9737 247.937 29.7729C247.848 29.5721 247.793 29.3378 247.793 29.0701V22.1311H246.527V21.406H247.815V18.26H248.692V21.406H250.824V22.1311H248.692V28.8581C248.692 29.204 248.814 29.4605 249.048 29.6279C249.281 29.7952 249.547 29.8845 249.836 29.8845C250.203 29.8845 250.513 29.8175 250.78 29.6948C251.046 29.5721 251.202 29.494 251.269 29.4606L251.524 30.1634Z" fill="#313F89"/>
<path d="M255.518 30.71C255.075 30.71 254.655 30.6285 254.282 30.477C253.897 30.3256 253.558 30.1159 253.278 29.848C252.987 29.58 252.765 29.2655 252.602 28.9044C252.439 28.5433 252.357 28.1472 252.357 27.7278C252.357 27.3085 252.45 26.924 252.649 26.5862C252.847 26.2484 253.127 25.9455 253.477 25.6892C253.827 25.4329 254.247 25.2349 254.748 25.0951C255.238 24.9553 255.786 24.8854 256.381 24.8854C256.895 24.8854 257.419 24.932 257.944 25.0252C258.469 25.1184 258.936 25.2466 259.356 25.4096V24.4661C259.356 23.5574 259.099 22.8352 258.574 22.2993C258.061 21.7635 257.349 21.4955 256.463 21.4955C255.996 21.4955 255.495 21.5887 254.97 21.7868C254.445 21.9848 253.908 22.2644 253.372 22.6372L253.022 22.0081C254.258 21.1694 255.425 20.75 256.533 20.75C257.688 20.75 258.609 21.0878 259.274 21.7518C259.939 22.4275 260.277 23.3478 260.277 24.536V29.2306C260.277 29.5334 260.417 29.6965 260.686 29.6965V30.5236C260.627 30.5353 260.557 30.5469 260.487 30.5469C260.417 30.5469 260.359 30.5586 260.312 30.5586C260.067 30.5586 259.869 30.477 259.717 30.3139C259.566 30.1508 259.484 29.9528 259.461 29.7082V28.916C259.017 29.4985 258.446 29.9412 257.758 30.244C257.069 30.5586 256.323 30.71 255.518 30.71ZM255.705 29.9761C256.416 29.9761 257.081 29.8363 257.676 29.5684C258.271 29.3005 258.738 28.9393 259.052 28.4967C259.251 28.2404 259.344 27.9957 259.344 27.7628V26.062C258.901 25.8873 258.434 25.7591 257.956 25.6776C257.478 25.596 256.976 25.5494 256.451 25.5494C255.973 25.5494 255.53 25.596 255.133 25.7009C254.737 25.8057 254.398 25.9455 254.118 26.1319C253.838 26.3183 253.617 26.5396 253.465 26.8075C253.313 27.0755 253.232 27.3667 253.232 27.6812C253.232 28.0074 253.29 28.2986 253.418 28.5899C253.547 28.8694 253.71 29.1141 253.932 29.3238C254.153 29.5334 254.422 29.6849 254.713 29.8014C255.028 29.9179 255.355 29.9761 255.705 29.9761Z" fill="#313F89"/>
<path d="M262.351 25.6776C262.351 25.0019 262.463 24.3612 262.688 23.7555C262.912 23.1497 263.227 22.6255 263.631 22.1828C264.035 21.7402 264.517 21.3907 265.067 21.1344C265.629 20.8781 266.235 20.75 266.897 20.75C267.739 20.75 268.48 20.948 269.119 21.3441C269.759 21.7402 270.242 22.2877 270.556 22.9866L269.681 23.2779C269.411 22.7536 269.018 22.3343 268.513 22.0314C268.008 21.7285 267.458 21.5771 266.852 21.5771C266.336 21.5771 265.864 21.6819 265.427 21.8916C264.989 22.1013 264.607 22.3925 264.282 22.7653C263.956 23.1381 263.698 23.5691 263.507 24.07C263.316 24.5709 263.227 25.1068 263.227 25.6892C263.227 26.2717 263.328 26.8075 263.518 27.3201C263.709 27.8327 263.979 28.2753 264.304 28.6481C264.63 29.0209 265.011 29.3238 265.46 29.5451C265.909 29.7664 266.381 29.8829 266.875 29.8829C267.2 29.8829 267.514 29.8363 267.829 29.7315C268.143 29.6383 268.435 29.4985 268.704 29.3471C268.974 29.184 269.198 28.9976 269.4 28.7879C269.591 28.5666 269.726 28.3452 269.804 28.1123L270.68 28.3685C270.556 28.7064 270.377 29.0092 270.141 29.3005C269.894 29.5917 269.613 29.8363 269.277 30.046C268.94 30.2557 268.581 30.4188 268.177 30.5353C267.773 30.6518 267.357 30.71 266.931 30.71C266.28 30.71 265.674 30.5819 265.112 30.3139C264.551 30.046 264.068 29.6849 263.664 29.2189C263.26 28.7529 262.935 28.2287 262.699 27.623C262.463 27.0172 262.351 26.3649 262.351 25.6776Z" fill="#313F89"/>
<path d="M272.346 19.1044V17.4301H273.179V19.1044H272.346ZM272.346 30.7101V21.2489H273.179V30.7101H272.346Z" fill="#313F89"/>
<path d="M280.252 30.7101C279.593 30.7101 278.98 30.5855 278.424 30.3251C277.868 30.0647 277.38 29.7138 276.971 29.2722C276.562 28.8307 276.244 28.3099 276.017 27.7325C275.79 27.1438 275.677 26.5325 275.677 25.8871C275.677 25.2305 275.79 24.6078 276.029 24.0191C276.267 23.4304 276.585 22.9209 276.994 22.4794C277.402 22.0379 277.891 21.6869 278.447 21.4265C279.003 21.1661 279.605 21.0416 280.252 21.0416C280.899 21.0416 281.501 21.1661 282.057 21.4265C282.613 21.6869 283.09 22.0379 283.51 22.4794C283.919 22.9209 284.248 23.4417 284.486 24.0191C284.725 24.6078 284.838 25.2305 284.838 25.8871C284.838 26.5325 284.725 27.1551 284.486 27.7325C284.248 28.3099 283.93 28.8307 283.521 29.2722C283.113 29.7138 282.625 30.0647 282.068 30.3251C281.501 30.5855 280.899 30.7101 280.252 30.7101ZM276.585 25.9211C276.585 26.4758 276.676 26.9853 276.869 27.4721C277.062 27.959 277.323 28.3778 277.652 28.7401C277.981 29.1024 278.367 29.3854 278.81 29.5892C279.253 29.8043 279.73 29.9062 280.229 29.9062C280.729 29.9062 281.205 29.8043 281.648 29.5892C282.091 29.3854 282.477 29.0911 282.818 28.7175C283.158 28.3439 283.419 27.9137 283.612 27.4382C283.805 26.9514 283.896 26.4306 283.896 25.8645C283.896 25.3097 283.805 24.8003 283.612 24.3135C283.419 23.8266 283.158 23.4077 282.818 23.0341C282.477 22.6719 282.091 22.3775 281.66 22.1624C281.217 21.9473 280.751 21.8341 280.24 21.8341C279.73 21.8341 279.264 21.9473 278.821 22.1624C278.379 22.3775 277.993 22.6719 277.663 23.0455C277.334 23.4191 277.073 23.8493 276.869 24.3474C276.676 24.8456 276.585 25.3664 276.585 25.9211ZM280.24 19.2415L279.605 18.9584L280.706 17.4301H281.75L280.24 19.2415Z" fill="#313F89"/>
<path d="M294 29.8691H293.122V24.8753C293.122 23.7137 292.955 22.8778 292.621 22.3459C292.287 21.8139 291.754 21.5534 291.02 21.5534C290.63 21.5534 290.241 21.6185 289.863 21.7596C289.485 21.9007 289.129 22.0962 288.795 22.3459C288.462 22.5955 288.173 22.8887 287.928 23.2361C287.683 23.5726 287.494 23.9417 287.383 24.3325V29.88H286.504V20.9128H287.338V23.0515C287.528 22.7041 287.761 22.3893 288.039 22.107C288.317 21.8248 288.629 21.5859 288.973 21.3797C289.318 21.1842 289.685 21.0214 290.074 20.9128C290.464 20.8043 290.864 20.75 291.275 20.75C292.276 20.75 292.977 21.0974 293.388 21.7705C293.8 22.4436 294 23.4315 294 24.7016V29.8691V29.8691Z" fill="#313F89"/>
<path d="M97.4448 65.57V40.67H108.385C109.571 40.67 110.667 40.91 111.673 41.3899C112.679 41.8698 113.549 42.5024 114.273 43.2877C114.996 44.0729 115.572 44.9564 115.979 45.9489C116.386 46.9414 116.601 47.9448 116.601 48.9482C116.601 49.9953 116.409 51.0205 116.024 52.013C115.64 53.0055 115.086 53.889 114.386 54.6633C113.685 55.4377 112.837 56.0594 111.843 56.5284C110.848 56.9974 109.763 57.2264 108.577 57.2264H102.474V65.57H97.4448ZM102.463 52.9837H108.283C109.198 52.9837 109.978 52.6238 110.588 51.893C111.21 51.1623 111.515 50.1807 111.515 48.9482C111.515 48.3156 111.413 47.7485 111.221 47.2468C111.029 46.7451 110.769 46.3197 110.453 45.9707C110.136 45.6217 109.763 45.3599 109.345 45.1854C108.916 45.0109 108.486 44.9237 108.057 44.9237H102.463V52.9837V52.9837Z" fill="#313F89"/>
<path d="M129.926 51.7361C128.514 51.7584 127.252 52.0379 126.141 52.5855C125.03 53.122 124.232 53.9379 123.747 55.0109V66.4001H119.099V47.5671H123.37V51.5908C123.693 50.9425 124.071 50.3613 124.513 49.8472C124.955 49.3331 125.429 48.886 125.936 48.4948C126.443 48.1036 126.961 47.813 127.478 47.6118C127.996 47.4107 128.503 47.3101 128.988 47.3101C129.247 47.3101 129.43 47.3101 129.56 47.3101C129.689 47.3101 129.808 47.3212 129.926 47.3436V51.7361V51.7361Z" fill="#313F89"/>
<path d="M140.353 66.4001C138.867 66.4001 137.521 66.1375 136.338 65.6233C135.155 65.1092 134.145 64.409 133.321 63.5338C132.496 62.6586 131.855 61.6412 131.421 60.4926C130.976 59.3439 130.759 58.1405 130.759 56.8715C130.759 55.5806 130.976 54.3662 131.421 53.2176C131.866 52.0689 132.496 51.0515 133.321 50.1763C134.145 49.3011 135.155 48.601 136.338 48.0868C137.521 47.5726 138.867 47.3101 140.353 47.3101C141.84 47.3101 143.175 47.5726 144.347 48.0868C145.52 48.601 146.518 49.3011 147.354 50.1763C148.179 51.0515 148.819 52.0689 149.253 53.2176C149.698 54.3662 149.915 55.5915 149.915 56.8715C149.915 58.1405 149.698 59.3439 149.253 60.4926C148.808 61.6412 148.179 62.6586 147.365 63.5338C146.551 64.409 145.552 65.1092 144.358 65.6233C143.175 66.1484 141.84 66.4001 140.353 66.4001ZM135.567 56.8715C135.567 57.692 135.687 58.4359 135.936 59.1032C136.175 59.7705 136.522 60.3503 136.946 60.8426C137.38 61.3349 137.879 61.7178 138.465 61.9804C139.051 62.2539 139.681 62.3851 140.353 62.3851C141.026 62.3851 141.656 62.2539 142.242 61.9804C142.828 61.7069 143.327 61.3349 143.761 60.8426C144.195 60.3503 144.532 59.7596 144.771 59.0813C145.009 58.403 145.14 57.6482 145.14 56.8277C145.14 56.0291 145.02 55.2961 144.771 54.6069C144.521 53.9287 144.185 53.3379 143.761 52.8456C143.327 52.3533 142.828 51.9704 142.242 51.6969C141.656 51.4234 141.026 51.2922 140.353 51.2922C139.681 51.2922 139.051 51.4344 138.465 51.7188C137.879 52.0032 137.38 52.3861 136.946 52.8784C136.511 53.3707 136.175 53.9615 135.936 54.6397C135.697 55.329 135.567 56.0729 135.567 56.8715Z" fill="#313F89"/>
<path d="M154.879 66.4001V52.2608H152.414V48.6004H154.879V47.451C154.879 45.1074 155.434 43.2549 156.556 41.8823C157.677 40.5208 159.199 39.8401 161.131 39.8401C162.652 39.8401 164.185 40.2084 165.739 40.9561L164.773 44.5829C164.418 44.3932 163.996 44.2258 163.507 44.1031C163.019 43.9803 162.574 43.9022 162.164 43.9022C160.498 43.9022 159.665 45.0293 159.665 47.2724V48.6004H164.24V52.2608H159.665V66.4001H154.879Z" fill="#313F89"/>
<path d="M174.119 66.4001C172.593 66.4001 171.215 66.1486 169.972 65.6456C168.74 65.1427 167.678 64.4539 166.808 63.5901C165.938 62.7264 165.26 61.7205 164.786 60.5615C164.311 59.4135 164.074 58.2108 164.074 56.9425C164.074 55.6305 164.3 54.395 164.763 53.236C165.226 52.0771 165.893 51.0603 166.763 50.1747C167.633 49.3 168.695 48.6002 169.938 48.0863C171.181 47.5725 172.582 47.3101 174.13 47.3101C175.678 47.3101 177.068 47.5725 178.288 48.0863C179.509 48.6002 180.548 49.289 181.418 50.1637C182.277 51.0275 182.932 52.0443 183.384 53.1923C183.836 54.3403 184.062 55.5321 184.062 56.7785C184.062 57.0847 184.051 57.3799 184.04 57.6532C184.029 57.9375 183.995 58.1671 183.949 58.353H169.226C169.294 59.0855 169.475 59.7197 169.769 60.2882C170.062 60.8458 170.435 61.3269 170.899 61.7314C171.362 62.136 171.882 62.4312 172.458 62.6498C173.034 62.8576 173.644 62.9669 174.277 62.9669C175.249 62.9669 176.164 62.7373 177.023 62.2781C177.882 61.8189 178.469 61.2176 178.786 60.4631L182.966 61.5893C182.266 62.9997 181.147 64.1477 179.599 65.0552C178.085 65.9518 176.243 66.4001 174.119 66.4001ZM179.057 55.2916C178.932 53.9139 178.413 52.7987 177.475 51.9678C176.537 51.1368 175.407 50.7213 174.074 50.7213C173.418 50.7213 172.808 50.8307 172.243 51.0603C171.678 51.2789 171.17 51.596 170.74 51.9896C170.3 52.3942 169.949 52.8643 169.667 53.4329C169.384 53.9905 169.226 54.6137 169.181 55.2916H179.057V55.2916Z" fill="#313F89"/>
<path d="M194.073 66.4001C192.518 66.4001 191.006 66.1601 189.528 65.6583C188.05 65.1674 186.779 64.4692 185.728 63.5529L187.491 60.6076C188.619 61.4039 189.714 62.0039 190.787 62.4184C191.861 62.833 192.923 63.0293 193.974 63.0293C194.916 63.0293 195.65 62.8548 196.197 62.5057C196.734 62.1566 197.008 61.6548 197.008 61.0003C197.008 60.3458 196.69 59.8658 196.055 59.5604C195.42 59.255 194.39 58.9059 192.956 58.5132C191.762 58.1859 190.733 57.8696 189.889 57.5641C189.046 57.2587 188.367 56.9205 187.842 56.5278C187.327 56.146 186.944 55.6988 186.714 55.197C186.484 54.6952 186.363 54.0952 186.363 53.3861C186.363 52.448 186.549 51.608 186.911 50.8553C187.272 50.1027 187.787 49.47 188.444 48.9463C189.101 48.4227 189.868 48.0191 190.755 47.7355C191.631 47.4519 192.594 47.3101 193.624 47.3101C195.004 47.3101 196.307 47.5064 197.511 47.91C198.716 48.3137 199.833 48.9463 200.841 49.8408L198.935 52.6771C197.993 51.9789 197.084 51.4662 196.208 51.1281C195.332 50.8008 194.456 50.6372 193.58 50.6372C192.781 50.6372 192.113 50.8008 191.576 51.1281C191.039 51.4553 190.766 51.9789 190.766 52.7098C190.766 53.0371 190.831 53.3098 190.963 53.517C191.094 53.7243 191.302 53.9097 191.576 54.0734C191.861 54.237 192.233 54.4006 192.682 54.5424C193.142 54.6952 193.711 54.8479 194.39 55.0115C195.661 55.3388 196.745 55.666 197.654 55.9933C198.552 56.3205 199.296 56.6914 199.877 57.1169C200.457 57.5423 200.873 58.0223 201.147 58.5677C201.421 59.1131 201.552 59.7786 201.552 60.5531C201.552 62.353 200.884 63.7711 199.548 64.8183C198.201 65.8874 196.383 66.4001 194.073 66.4001Z" fill="#313F89"/>
<path d="M204.884 44.5302V39.8401H209.881V44.5302H204.884ZM204.884 65.5701V47.1054H209.881V65.5701H204.884Z" fill="#313F89"/>
<path d="M221.974 66.4001C220.487 66.4001 219.141 66.1375 217.958 65.6233C216.775 65.1092 215.766 64.409 214.941 63.5338C214.116 62.6586 213.476 61.6412 213.042 60.4926C212.597 59.3439 212.38 58.1405 212.38 56.8715C212.38 55.5806 212.597 54.3662 213.042 53.2176C213.487 52.0689 214.116 51.0515 214.941 50.1763C215.766 49.3011 216.775 48.601 217.958 48.0868C219.141 47.5726 220.487 47.3101 221.974 47.3101C223.461 47.3101 224.796 47.5726 225.968 48.0868C227.14 48.601 228.139 49.3011 228.974 50.1763C229.799 51.0515 230.44 52.0689 230.874 53.2176C231.319 54.3662 231.536 55.5915 231.536 56.8715C231.536 58.1405 231.319 59.3439 230.874 60.4926C230.429 61.6412 229.799 62.6586 228.985 63.5338C228.171 64.409 227.173 65.1092 225.979 65.6233C224.796 66.1484 223.461 66.4001 221.974 66.4001ZM217.188 56.8715C217.188 57.692 217.307 58.4359 217.557 59.1032C217.796 59.7705 218.143 60.3503 218.566 60.8426C219 61.3349 219.5 61.7178 220.086 61.9804C220.672 62.2539 221.301 62.3851 221.974 62.3851C222.647 62.3851 223.276 62.2539 223.863 61.9804C224.449 61.7069 224.948 61.3349 225.382 60.8426C225.816 60.3503 226.153 59.7596 226.391 59.0813C226.63 58.403 226.76 57.6482 226.76 56.8277C226.76 56.0291 226.641 55.2961 226.391 54.6069C226.142 53.9287 225.805 53.3379 225.382 52.8456C224.948 52.3533 224.449 51.9704 223.863 51.6969C223.276 51.4234 222.647 51.2922 221.974 51.2922C221.301 51.2922 220.672 51.4344 220.086 51.7188C219.5 52.0032 219 52.3861 218.566 52.8784C218.132 53.3707 217.796 53.9615 217.557 54.6397C217.307 55.329 217.188 56.0729 217.188 56.8715Z" fill="#313F89"/>
<path d="M253.19 66.4001H248.379V55.8638C248.379 54.3602 248.111 53.2576 247.587 52.5671C247.062 51.8765 246.325 51.5312 245.399 51.5312C244.919 51.5312 244.428 51.6315 243.926 51.8208C243.423 52.0102 242.955 52.2775 242.508 52.6227C242.062 52.968 241.66 53.3801 241.303 53.859C240.946 54.3379 240.678 54.8614 240.51 55.4406V66.4001H235.7V47.6331H240.042V51.108C240.734 49.9163 241.738 48.9807 243.055 48.3125C244.372 47.6442 245.857 47.3101 247.509 47.3101C248.681 47.3101 249.64 47.5217 250.377 47.956C251.114 48.3904 251.694 48.9473 252.096 49.6378C252.498 50.3284 252.788 51.1191 252.933 51.999C253.089 52.8789 253.167 53.7811 253.167 54.6832V66.4001H253.19Z" fill="#313F89"/>
<path d="M262.031 66.4001C261.138 66.4001 260.289 66.2578 259.516 65.9625C258.733 65.6671 258.06 65.2623 257.498 64.7263C256.935 64.1902 256.483 63.5776 256.163 62.8774C255.843 62.1773 255.688 61.4006 255.688 60.5582C255.688 59.6939 255.887 58.8844 256.273 58.1514C256.659 57.4185 257.211 56.7839 257.906 56.2698C258.601 55.7556 259.439 55.3508 260.41 55.0555C261.381 54.7601 262.44 54.6179 263.598 54.6179C264.425 54.6179 265.242 54.6835 266.025 54.8257C266.819 54.9679 267.525 55.1649 268.132 55.4274V54.3772C268.132 53.1519 267.779 52.222 267.084 51.5657C266.389 50.9093 265.352 50.5811 263.984 50.5811C262.991 50.5811 262.02 50.7561 261.072 51.1062C260.123 51.4562 259.152 51.9704 258.159 52.6596L256.703 49.6731C259.097 48.0977 261.667 47.3101 264.436 47.3101C267.106 47.3101 269.18 47.9555 270.658 49.2683C272.136 50.5701 272.875 52.4518 272.875 54.9132V60.6457C272.875 61.138 272.963 61.4881 273.14 61.6959C273.316 61.9038 273.603 62.0241 274.011 62.046V66.05C273.206 66.2141 272.511 66.2907 271.915 66.2907C271.011 66.2907 270.327 66.0937 269.842 65.689C269.356 65.2842 269.058 64.7591 268.937 64.1027L268.827 63.0853C267.999 64.1683 266.996 64.9888 265.815 65.5468C264.635 66.1047 263.388 66.4001 262.031 66.4001ZM263.388 62.954C264.194 62.954 264.955 62.8118 265.672 62.5274C266.389 62.2429 266.951 61.871 267.36 61.4006C267.878 60.9958 268.143 60.5582 268.143 60.0659V57.9545C267.58 57.7467 266.962 57.5716 266.301 57.4403C265.639 57.3091 264.999 57.2434 264.381 57.2434C263.146 57.2434 262.142 57.5169 261.37 58.0748C260.586 58.6218 260.2 59.322 260.2 60.1644C260.2 60.963 260.509 61.6194 261.127 62.1554C261.745 62.6915 262.484 62.954 263.388 62.954Z" fill="#313F89"/>
<path d="M277.354 39.8401H282.071V59.4439C282.071 60.1162 282.235 60.6366 282.564 61.0161C282.892 61.3848 283.363 61.5691 283.976 61.5691C284.26 61.5691 284.567 61.5257 284.906 61.4281C285.246 61.3414 285.574 61.2221 285.869 61.0812L286.504 64.6376C285.869 64.9412 285.136 65.1689 284.282 65.3315C283.439 65.4942 282.673 65.5701 281.995 65.5701C280.517 65.5701 279.368 65.1797 278.558 64.3991C277.748 63.6184 277.343 62.5124 277.343 61.0703V39.8401H277.354Z" fill="#313F89"/>
</svg>
